Coordinates
version=1
nRows=15
nColumns=46
inDegrees=yes

Units are S.I. units (second, meters, Newtons, ...)
Angles are in degrees.

endheader
time	pelvis_tilt	pelvis_list	pelvis_rotation	pelvis_tx	pelvis_ty	pelvis_tz	bb_angle	bb_tx	bb_ty	bb_tz	hip_flexion_r	hip_adduction_r	hip_rotation_r	knee_angle_r	knee_angle_r_beta	ankle_angle_r	subtalar_angle_r	mtp_angle_r	crank_angle_r	hip_flexion_l	hip_adduction_l	hip_rotation_l	knee_angle_l	knee_angle_l_beta	ankle_angle_l	subtalar_angle_l	mtp_angle_l	crank_angle_l	lumbar_extension	lumbar_bending	lumbar_rotation	arm_flex_r	arm_add_r	arm_rot_r	elbow_flex_r	pro_sup_r	wrist_flex_r	wrist_dev_r	arm_flex_l	arm_add_l	arm_rot_l	elbow_flex_l	pro_sup_l	wrist_flex_l	wrist_dev_l
      5.00000000	    -26.83174949	     11.07837285	      5.87871358	      0.34675299	      1.11413447	     -0.29635008	      0.00000000	      0.50000000	      0.00000000	      0.25000000	     38.35551732	    -17.04292177	      0.45464496	     35.68316630	      0.62278874	    -25.70704705	     -5.22431207	      0.00000000	      0.00000000	     83.07080579	      0.20113319	     -3.78320140	     95.34411839	      1.66406879	      6.72625967	      0.90708319	      0.00000000	      0.00000000	    -65.00839682	     -8.96978571	     -4.05854973	     63.74326347	    -30.81900332	     21.71541159	     76.65842750	     46.87891385	      0.00000000	      0.00000000	     80.12953130	     -3.73635775	     25.26146097	     60.67751619	     43.27159713	      0.00000000	      0.00000000
      5.00500000	    -26.88735369	     10.73569051	      5.51744037	      0.34645153	      1.11593173	     -0.29581406	      0.00000000	      0.50000000	      0.00000000	      0.25000000	     39.11107986	    -16.52089518	      0.77801660	     37.68143395	      0.65766509	    -25.31192873	     -5.76709889	      0.00000000	      0.00000000	     81.79937036	     -0.27308310	     -3.89400101	     93.00683043	      1.62327542	      8.57104929	      0.78402197	      0.00000000	      0.00000000	    -65.24174760	     -9.47646038	     -3.98748736	     63.92460781	    -30.67795398	     21.54835277	     76.29377167	     46.79480305	      0.00000000	      0.00000000	     80.22609467	     -3.42207316	     24.82053808	     61.14611190	     43.29199505	      0.00000000	      0.00000000
      5.01000000	    -26.97129976	     10.46621623	      5.13107022	      0.34621703	      1.11739480	     -0.29531612	      0.00000000	      0.50000000	      0.00000000	      0.25000000	     40.01374757	    -16.03706671	      1.33129244	     39.79832452	      0.69461180	    -24.87108836	     -5.90509073	      0.00000000	      0.00000000	     80.47942694	     -0.74144056	     -4.21842948	     90.52233678	      1.57991282	      9.99754660	      0.43341137	      0.00000000	      0.00000000	    -65.33047679	    -10.00339567	     -4.42609643	     64.37904157	    -29.33345827	     21.04433156	     74.54087219	     46.44471839	      0.00000000	      0.00000000	     79.58047480	     -3.10696931	     22.27709350	     62.76800373	     43.23587016	      0.00000000	      0.00000000
      5.01500000	    -26.96623349	     10.16437725	      4.75621606	      0.34603984	      1.11878217	     -0.29489956	      0.00000000	      0.50000000	      0.00000000	      0.25000000	     40.87010478	    -15.53957844	      1.82636482	     41.98329477	      0.73274672	    -24.55735660	     -6.22241364	      0.00000000	      0.00000000	     79.04368788	     -1.15243302	     -4.60581981	     87.92569227	      1.53459283	     11.06612118	     -0.70267431	      0.00000000	      0.00000000	    -65.53859330	    -10.52219416	     -4.44317752	     64.53656119	    -29.21810316	     21.08570446	     74.13079682	     46.38156227	      0.00000000	      0.00000000	     79.65213688	     -2.92080323	     22.02735035	     63.23636580	     43.27193888	      0.00000000	      0.00000000
      5.02000000	    -26.83922992	      9.60616824	      4.34846560	      0.34606759	      1.11980238	     -0.29473951	      0.00000000	      0.50000000	      0.00000000	      0.25000000	     41.63548353	    -14.82271731	      2.12876081	     44.31688703	      0.77347559	    -24.09783206	     -6.63101765	      0.00000000	      0.00000000	     77.59719373	     -1.62841928	     -4.75321445	     85.42163908	      1.49088885	     11.83829613	     -1.71227189	      0.00000000	      0.00000000	    -65.70366403	    -10.77837784	     -4.16830250	     64.74403326	    -29.05999145	     21.12715793	     73.88895310	     46.34302365	      0.00000000	      0.00000000	     79.53265382	     -2.82456561	     21.79724253	     63.56927033	     43.29732279	      0.00000000	      0.00000000
      5.02500000	    -26.71408010	      9.26410971	      3.91411232	      0.34622671	      1.12085059	     -0.29433886	      0.00000000	      0.50000000	      0.00000000	      0.25000000	     42.47911260	    -14.24260916	      2.71786634	     46.69343631	      0.81495420	    -23.56728653	     -6.59783966	      0.00000000	      0.00000000	     76.08583463	     -2.13633674	     -5.30141980	     82.72400725	      1.44380630	     11.93467560	     -2.95631784	      0.00000000	      0.00000000	    -65.84055178	    -11.03778204	     -4.85116379	     65.86006934	    -27.49478076	     22.01463210	     71.60813094	     46.05845885	      0.00000000	      0.00000000	     78.70467974	     -3.41491156	     19.77442982	     65.74268565	     43.38914366	      0.00000000	      0.00000000
      5.03000000	    -26.52517307	      8.76743378	      3.47753843	      0.34630495	      1.12144919	     -0.29416366	      0.00000000	      0.50000000	      0.00000000	      0.25000000	     43.35256996	    -13.54162796	      3.18121733	     49.23225086	      0.85926488	    -23.04247483	     -6.64956723	      0.00000000	      0.00000000	     74.66118254	     -2.66292522	     -5.66954220	     80.18899709	      1.39956202	     11.82337169	     -3.91740770	      0.00000000	      0.00000000	    -66.01447530	    -11.29047402	     -4.70329438	     66.13416680	    -27.31722829	     22.28218129	     71.15676379	     46.01548341	      0.00000000	      0.00000000	     78.59993294	     -3.47091377	     19.53177432	     66.21496209	     43.42799936	      0.00000000	      0.00000000
      5.03500000	    -26.34604109	      8.25242666	      3.12909539	      0.34638364	      1.12170999	     -0.29426170	      0.00000000	      0.50000000	      0.00000000	      0.25000000	     44.26951899	    -12.88924988	      3.57295027	     51.85223919	      0.90499230	    -22.41019410	     -6.61253853	      0.00000000	      0.00000000	     73.35036883	     -3.14343131	     -6.00933742	     77.75705833	      1.35711668	     11.39554576	     -4.71757232	      0.00000000	      0.00000000	    -66.10853536	    -11.36046800	     -4.71934162	     66.63411828	    -26.84580023	     22.85807311	     70.34792598	     45.94293441	      0.00000000	      0.00000000	     78.20784586	     -3.68229348	     18.81554369	     67.02744271	     43.47206764	      0.00000000	      0.00000000
      5.04000000	    -26.10312476	      7.63608208	      2.85045383	      0.34645912	      1.12170781	     -0.29452926	      0.00000000	      0.50000000	      0.00000000	      0.25000000	     45.18204392	    -12.22781339	      3.79181365	     54.57790544	      0.95256415	    -21.89624953	     -6.46016649	      0.00000000	      0.00000000	     72.11295687	     -3.62718815	     -6.17935665	     75.46177586	      1.31705645	     10.62373780	     -5.17770597	      0.00000000	      0.00000000	    -66.14153589	    -11.15695191	     -4.72067390	     67.28444171	    -26.00779006	     23.60044080	     69.12607757	     45.81771394	      0.00000000	      0.00000000	     77.69436562	     -4.15176743	     17.95381857	     68.09950691	     43.54270511	      0.00000000	      0.00000000
      5.04500000	    -25.82256773	      6.79151761	      2.64603175	      0.34634902	      1.12137058	     -0.29481536	      0.00000000	      0.50000000	      0.00000000	      0.25000000	     45.96919690	    -11.31745876	      3.88919576	     57.21506420	      0.99859125	    -21.39746463	     -6.83624566	      0.00000000	      0.00000000	     71.03482666	     -4.16516044	     -5.91681304	     73.40449783	      1.28115017	      9.88725259	     -4.85233822	      0.00000000	      0.00000000	    -66.21563048	    -10.90206116	     -4.30406889	     67.66806929	    -25.85701080	     23.73211436	     68.93108489	     45.79588178	      0.00000000	      0.00000000	     77.55024820	     -4.30894943	     17.77265658	     68.32308093	     43.55930770	      0.00000000	      0.00000000
      5.05000000	    -25.61952309	      6.11803816	      2.44711667	      0.34606999	      1.12064052	     -0.29517618	      0.00000000	      0.50000000	      0.00000000	      0.25000000	     47.01946000	    -10.59298743	      4.09692130	     60.01330540	      1.04742977	    -20.83990386	     -6.72870969	      0.00000000	      0.00000000	     70.05529425	     -4.65264112	     -5.82013628	     71.35755162	      1.24542422	      8.82218357	     -4.50789977	      0.00000000	      0.00000000	    -66.06561136	    -10.45513651	     -5.05098843	     69.64434529	    -24.10418049	     26.50456129	     65.36010640	     45.51655996	      0.00000000	      0.00000000	     76.46119087	     -5.92114836	     16.38459524	     70.85664596	     43.77962835	      0.00000000	      0.00000000
      5.05500000	    -25.28318682	      5.28558429	      2.26566312	      0.34604249	      1.11981471	     -0.29550060	      0.00000000	      0.50000000	      0.00000000	      0.25000000	     47.88794671	     -9.75346417	      4.07203735	     62.75730019	      1.09532152	    -20.44650510	     -6.91969068	      0.00000000	      0.00000000	     69.00488623	     -5.23514249	     -5.53601413	     69.44395143	      1.21202560	      7.61797305	     -3.91951144	      0.00000000	      0.00000000	    -66.09484208	    -10.13146751	     -4.50466474	     69.80518938	    -24.01447464	     26.60492511	     65.27205444	     45.51410684	      0.00000000	      0.00000000	     76.29397672	     -6.08737844	     16.28500006	     70.96787588	     43.78694050	      0.00000000	      0.00000000
      5.06000000	    -25.14139016	      4.51725493	      2.01331184	      0.34599231	      1.11833972	     -0.29571678	      0.00000000	      0.50000000	      0.00000000	      0.25000000	     49.07691062	     -8.90052542	      4.14601033	     65.58316460	      1.14464216	    -19.91285662	     -6.89190727	      0.00000000	      0.00000000	     68.16752957	     -5.83479924	     -5.28465357	     67.57212955	      1.17935614	      6.23503360	     -3.63477655	      0.00000000	      0.00000000	    -65.87197875	     -9.88177765	     -4.10151017	     70.14293761	    -23.87518328	     27.25233271	     64.80975042	     45.51103092	      0.00000000	      0.00000000	     75.85410480	     -6.43404328	     15.94716480	     71.56327364	     43.84714167	      0.00000000	      0.00000000
      5.06500000	    -24.75081014	      3.67539984	      1.80289819	      0.34590773	      1.11694362	     -0.29618660	      0.00000000	      0.50000000	      0.00000000	      0.25000000	     49.98481856	     -8.06438054	      4.03200788	     68.33286836	      1.19263354	    -19.72798129	     -6.63809834	      0.00000000	      0.00000000	     67.11214249	     -6.34417146	     -4.82920567	     65.77153067	      1.14792976	      4.77369623	     -3.32433149	      0.00000000	      0.00000000	    -65.80893101	     -9.29699688	     -4.33538728	     71.62972853	    -22.73451208	     30.16407118	     62.30948461	     45.43277796	      0.00000000	      0.00000000	     74.71059644	     -7.86651689	     14.92512387	     73.71440792	     44.06213548	      0.00000000	      0.00000000
      5.07000000	    -24.34929512	      2.91938954	      1.54782381	      0.34609557	      1.11532571	     -0.29640068	      0.00000000	      0.50000000	      0.00000000	      0.25000000	     50.93131065	     -7.27648088	      3.91226323	     71.14094150	      1.24164366	    -19.33313393	     -6.85514890	      0.00000000	      0.00000000	     65.99281492	     -6.86790601	     -4.43324516	     64.01695125	      1.11730658	      3.31816072	     -2.84505732	      0.00000000	      0.00000000	    -65.79710831	     -9.03520590	     -3.73898842	     71.65349346	    -22.61397542	     30.25267811	     62.21377264	     45.42862229	      0.00000000	      0.00000000	     74.39763067	     -8.06388002	     14.87035140	     73.77919832	     44.06831912	      0.00000000	      0.00000000
